<?xml version="1.0" encoding="UTF-8"?><svg id="Warstwa_1" xmlns="http://www.w3.org/2000/svg" viewBox="0 0 152 160"><defs><style>.cls-1{fill:none;}.cls-2{fill:#ed1a20;}</style></defs><rect class="cls-1" width="152" height="160"/><rect x="25.73" y="73.52" width="33.15" height="8.61"/><path d="m91.2,25h-1.9l-19.11,48.52h9.25l10.81-27.44,27.01,68.57h9.25L91.2,25Zm-37.21,89.65h9.25l12.81-32.52h-9.25l-12.81,32.52Z"/><path d="m31.05,121.77l5.22,13.23h-1.2l-1.76-4.35h-4.83l-1.74,4.35h-1.25l5.29-13.23h.26Zm-.14,2.8l-1.93,4.79h3.83l-1.9-4.79Z"/><path d="m38,121.77h2.76c1.23,0,2.37.07,3.47.61,2.01.96,3.21,3.24,3.21,6.16,0,3.78-1.93,6.47-5.53,6.47h-3.91v-13.23Zm2.77,11.94c2.12,0,3.52-.22,4.52-1.66.64-.92.98-2.12.98-3.5s-.31-2.54-.93-3.5c-1.06-1.64-2.65-1.99-5.08-1.99h-1.14v10.65h1.65Z"/><path d="m49.65,121.77h2.57c1.17,0,2.06.09,2.6.33,1.15.52,1.84,1.7,1.84,3.19,0,.66-.08,1.05-.33,1.64-.58,1.38-1.7,1.92-3.55,1.92l4.03,6.16h-1.39l-4.02-6.16h-.64v6.16h-1.12v-13.23Zm1.12,1.29v4.5c.62,0,1.26.02,1.85.02.97,0,1.71-.11,2.2-.57.4-.39.67-1.03.67-1.71,0-1.29-.75-2.23-2.43-2.23h-2.29Z"/><path d="m58.88,121.77h1.12v13.23h-1.12v-13.23Z"/><path d="m67.13,121.77l5.22,13.23h-1.2l-1.76-4.35h-4.83l-1.74,4.35h-1.25l5.29-13.23h.26Zm-.14,2.8l-1.93,4.79h3.83l-1.9-4.79Z"/><path d="m73.4,129.36h5.07v1.29h-5.07v-1.29Z"/><path d="m90.83,121.77h2.57c1.17,0,2.06.09,2.6.33,1.15.52,1.84,1.7,1.84,3.19,0,.66-.08,1.05-.33,1.64-.58,1.38-1.7,1.92-3.55,1.92l4.03,6.16h-1.39l-4.02-6.16h-.64v6.16h-1.12v-13.23Zm1.12,1.29v4.5c.62,0,1.26.02,1.85.02.97,0,1.71-.11,2.2-.57.4-.39.67-1.03.67-1.71,0-1.29-.75-2.23-2.43-2.23h-2.29Z"/><path d="m99.21,123.06v-1.29h6.13v1.29h-2.49v11.94h-1.12v-11.94h-2.52Z"/><path d="m111.26,121.77h2.58c1.17,0,2.04.09,2.58.33,1.14.52,1.84,1.7,1.84,3.19,0,1.25-.5,2.3-1.29,2.89-.79.59-1.95.66-3.49.66h-1.11v6.16h-1.12v-13.23Zm1.12,1.29v4.5c.64.02,1.28,0,1.85,0,.97,0,1.71-.07,2.21-.55.39-.37.65-1.05.65-1.71s-.28-1.35-.7-1.73c-.5-.44-1.17-.5-2.04-.5h-1.98Z"/><path d="m120.5,121.77h1.12v11.94h4.3v1.29h-5.42v-13.23Z"/><path d="m78.27,135h1.25l1.74-4.35h-1.25l-1.74,4.35Zm5.56-13.23h-.26l-3.04,7.59h1.25l1.92-4.79,4.16,10.43h1.2l-5.22-13.23Z"/><circle class="cls-2" cx="107.16" cy="133.91" r="1.09"/></svg>