<?xml version="1.0" encoding="UTF-8"?><svg id="Warstwa_1" xmlns="http://www.w3.org/2000/svg" viewBox="0 0 150 160"><defs><style>.cls-1{fill:none;}.cls-2{fill:#fff;}</style></defs><rect class="cls-1" width="150" height="160"/><circle cx="75" cy="80" r="50"/><path class="cls-2" d="m75,121.91c-23.11,0-41.91-18.8-41.91-41.91s18.8-41.91,41.91-41.91,41.91,18.8,41.91,41.91-18.8,41.91-41.91,41.91Zm0-81.87c-22.04,0-39.96,17.93-39.96,39.96s17.93,39.96,39.96,39.96,39.96-17.93,39.96-39.96-17.93-39.96-39.96-39.96Z"/><path class="cls-2" d="m87,84.75h2.09l-13.8-35.46h-1.92l-13.8,35.46h2.09l4.6-11.81h16.16l4.6,11.81Zm-20-13.75l7.32-18.82,7.32,18.82h-14.64Z"/><polygon class="cls-2" points="93.59 67.59 84.42 101.78 75.36 76.62 75.36 76.6 75.35 76.6 73.3 76.6 73.28 76.6 73.29 76.62 64.22 101.78 55.06 67.59 53.05 67.59 63.13 105.23 65.05 105.23 74.32 79.49 83.6 105.23 85.51 105.23 95.6 67.59 93.59 67.59"/></svg>