<?xml version="1.0" encoding="UTF-8"?><svg id="Warstwa_1" xmlns="http://www.w3.org/2000/svg" viewBox="0 0 604 160"><defs><style>.cls-1{fill:none;}</style></defs><rect class="cls-1" width="604" height="160"/><path d="m251.22,60.89c.21-.15.43-.3.64-.45.06-.03.12-.05.17-.08.7-.41,1.39-.82,2.09-1.22.68-.4,1.38-.74,2.2-.76.1.02.2.04.31.06.02.02.05.04.07.06.46.07.78.34,1.07.67.07.08.13.16.19.25.02.05.03.1.05.15.28.72.25,1.4-.17,2.06-.04.07-.09.14-.13.22-.21.17-.42.35-.63.52-.33.15-.66.31-.99.46-.4.19-.81.39-1.21.58-.24.1-.47.21-.71.31-.58.26-1.16.52-1.74.78-.5.22-1.01.43-1.51.66-1.09.5-2.19.96-3.32,1.35-1.33.45-2.68.84-4.04,1.19-.97.24-1.94.51-2.91.77-.46.12-.92.23-1.38.35-.37.1-.73.2-1.1.3-1.05.27-2.1.53-3.15.81-.72.19-1.44.41-2.16.59-.87.22-1.74.43-2.62.63-.24.05-.48.05-.73.07-.19.02-.39.03-.58.04-.18.01-.24.09-.27.28-.08.48-.2.96-.29,1.44-.09.45-.17.91-.27,1.36-.13.61-.27,1.21-.42,1.81-.05.17-.04.26.11.37.4.31.79.63,1.17.97.51.46,1.01.94,1.5,1.41.28.27.42.62.51.98,0,0-.01.02-.01.02,0,.02.01.03.02.05,0,.08,0,.15,0,.23,0,.03,0,.05-.01.08-.16.39-.3.79-.47,1.17-.19.41-.49.66-.98.64-.9-.03-1.75.21-2.55.59-.41.19-.81.4-1.21.6-.19.09-.35.22-.43.42-.07.16-.1.33-.13.51-.11.57-.22,1.13-.33,1.7,0,.02,0,.04,0,.06,0,.02,0,.05,0,.07-.01.07-.02.15-.03.22,0,.09,0,.18,0,.26.04.1.06.21.13.29.36.45.74.89,1.11,1.34,1.06,1.32,2.11,2.63,3.16,3.96.36.45.69.92,1.04,1.37.42.55.86,1.08,1.28,1.63,1.65,2.15,3.22,4.36,4.73,6.61.88,1.32,1.74,2.66,2.61,4,.03.05.08.1.12.15.48.77.95,1.54,1.43,2.31.24.4.48.79.71,1.2.22.39.42.8.65,1.2.08.14.19.25.29.38.05.19.12.37.14.56.04.36.06.73.08,1.09.02.45.18.86.33,1.28.06.17.16.33.25.48.25.42.5.85.78,1.26.22.33.26.51.05.85-.09.15-.18.3-.3.42-.19.21-.21.44-.14.69.04.14.08.27.1.41.05.34-.12.53-.47.54-.12,0-.24,0-.35,0-.66-.14-1.33-.28-1.99-.42-.04-.03-.09-.06-.13-.08-.5-.24-.84-.61-1.04-1.13-.1-.25-.16-.5-.2-.76-.26-1.61-.92-3.08-1.75-4.46-.59-.98-1.24-1.93-1.88-2.89-.33-.49-.67-.97-1.01-1.45-.32-.47-.64-.94-.96-1.41-.51-.76-1.02-1.51-1.53-2.27-.23-.35-.41-.72-.54-1.12-.22-.73-.66-1.32-1.16-1.88-1.63-1.84-3.16-3.75-4.56-5.77-.06-.09-.12-.18-.18-.27-.3-.46-.61-.91-.97-1.32-.34-.39-.6-.83-.9-1.26-.07-.09-.13-.19-.22-.33-.08.23-.17.43-.22.63-.36,1.33-.98,2.53-1.67,3.71-.18.3-.4.56-.73.71-.04.01-.07.02-.11.03-.36.03-.71-.02-1.04-.17-.18-.08-.37-.19-.51-.32-.43-.4-.43-.92-.03-1.34.02-.02.04-.05.07-.07.6-.46.96-1.1,1.22-1.79.19-.5.37-1,.56-1.51.17-.48.34-.96.5-1.45.08-.24.12-.49.2-.74.04-.14-.01-.25-.1-.35-.4-.44-.79-.88-1.19-1.31-.63-.67-1.25-1.34-1.58-2.22-.02-.05-.05-.09-.09-.15-.82.22-1.61.53-2.36.94-.1.05-.19.15-.24.25-.25.48-.52.96-.72,1.46-.3.74-.55,1.49-.81,2.24-.12.35-.2.71-.31,1.07-.07.26-.14.51-.22.77-.12.44-.26.88-.37,1.32-.09.35-.16.71-.24,1.07-.07.29-.15.57-.22.86-.15.65-.29,1.29-.43,1.94-.04.2-.1.39-.14.59-.02.08.01.17.02.26,0,.02-.01.04-.02.06,0,.35,0,.7,0,1.05,0,.04.01.08.02.11,0,.04.01.09.02.13,0,.03.02.07.03.1.06.33.11.66.17.99.01.09.02.19.03.28,0,.07,0,.14,0,.2,0,.05-.02.11-.02.16-.1.59-.47.93-1,1.16-.54.24-1.12.27-1.67.17-.58-.11-1.02-.48-1.21-1.08-.05-.16-.07-.34-.11-.5,0-.15,0-.3-.01-.45,0-.07,0-.13.01-.2,0-.02,0-.04,0-.07,0-.04,0-.09,0-.13,0-.1.02-.21.03-.31.01-.09.02-.18.03-.27,0-.04,0-.09.01-.13.02-.13.03-.26.05-.39,0-.04,0-.08.01-.13.04-.32.08-.65.12-.97,0-.06.01-.12.02-.18.01-.11.03-.23.04-.34,0-.04,0-.08.01-.13.07-.56.12-1.12.21-1.67.04-.24.15-.47.25-.69.17-.37.38-.72.54-1.09.17-.41.3-.83.44-1.26.19-.57.37-1.14.55-1.71.19-.62.38-1.24.57-1.85.12-.38.23-.77.35-1.15.01-.04,0-.08,0-.14-.08,0-.16,0-.23.02-.75.23-1.5.43-2.24.7-1.26.47-2.53.9-3.77,1.41-1.3.53-2.59,1.06-3.88,1.59-.57.23-1.06.56-1.5.99-.34.34-.73.64-1.2.79-.16.05-.33.1-.49.15-.06,0-.13.01-.19.02-.09,0-.17-.01-.26-.02-.02,0-.05,0-.07,0-.44-.1-.82-.29-1.1-.67-.36-.49-.2-1.36.34-1.64.19-.1.43-.11.65-.16.14-.03.29-.06.43-.11.26-.09.43-.3.6-.5.18-.22.34-.44.49-.68.38-.58.93-.85,1.59-.97.47-.09.9-.25,1.24-.61.29-.32.64-.49,1.08-.57.46-.08.9-.28,1.33-.46.4-.16.78-.36,1.18-.53.14-.06.29-.07.43-.1.04-.02.09-.04.13-.06.19-.02.37-.04.56-.06.03,0,.05,0,.08,0,.27.08.53.05.79-.05,1.36-.53,2.72-1.06,4.07-1.59.18-.07.35-.16.52-.25.3-.17.56-.38.72-.71.19-.38.45-.74.65-1.11.32-.61.54-1.27.73-1.93.05-.16.02-.29-.11-.43-.18-.22-.32-.48-.45-.73-.45-.85-.91-1.69-1.47-2.48-.44-.63-.95-1.19-1.55-1.67-.2-.16-.39-.34-.44-.62,0-.06,0-.13,0-.19.03-.18.06-.36.09-.53,0,0,.01-.01.01-.01h-.01c0-.15,0-.3,0-.44,0,0,0-.02,0-.02h-.02c-.06-.1-.11-.19-.18-.27-.31-.36-.32-.99-.03-1.38.27-.37.64-.58,1.07-.71.65-.19,1.33-.26,2-.33.11-.01.21-.03.32-.04.02.02.03.02.06.03.04,0,.08,0,.13.01.04-.02.09-.03.13-.05.11-.01.22-.03.33-.04.07,0,.13-.02.2-.03.38-.02.76-.04,1.14-.08.22-.02.43-.09.65-.15.52-.14,1.04-.29,1.56-.43.29-.08.34-.21.17-.46-.52-.79-1.12-1.52-1.85-2.14-.53-.46-1.01-.96-1.37-1.57-.1-.17-.18-.36-.28-.53-.06-.11-.15-.2-.28-.24-.69-.23-1.04-.77-1.3-1.4-.1-.25-.23-.5-.35-.75-.12-.26-.24-.52-.36-.78-.02-.06-.04-.12-.07-.18-.67-1.43-1.51-2.76-2.44-4.04-.14-.32-.17-.65-.13-.99.02-.13.05-.26.07-.39.16-.22.29-.47.49-.66.36-.36.82-.48,1.32-.48.16.05.34.08.47.17.14.1.28.24.34.4.1.27.14.57.22.85.09.37.22.72.55.94.38.26.47.64.49,1.05.02.29.01.58.02.87,0,.03.01.06.02.09.01.31.17.54.4.74.23.2.47.39.71.59.35.5.71.99,1.05,1.49.42.62.81,1.25,1.22,1.88,0,.05,0,.11.03.15.19.34.43.67.57,1.03.13.32.29.57.57.77.21.16.42.33.47.63.01.06.13.14.21.16.27.06.5-.1.59-.37.19-.53.38-1.05.56-1.58.08-.24.15-.49.22-.73.05-.14.1-.27.15-.41.15-.42.3-.83.44-1.25.06-.17.13-.34.19-.51.39-1.11.77-2.22,1.16-3.33.24-.69.47-1.38.7-2.07.07-.24.15-.48.21-.73.03-.14.07-.3.05-.44-.03-.25-.13-.48-.17-.73-.07-.42,0-.81.35-1.1.07-.06.15-.12.23-.18.39-.15.8-.23,1.22-.24.34-.01.68-.05,1.02-.08.19,0,.39,0,.58.01.39.14.52.43.49.81-.02.29-.04.58-.08.87-.06.41-.14.82-.21,1.23-.08.26-.17.52-.24.79-.05.2-.08.4-.14.59-.11.43-.24.86-.36,1.29-.2.38-.32.79-.62,1.11-.49.52-.66,1.15-.67,1.85,0,.81-.2,1.54-.87,2.1-.19.16-.27.45-.39.68.08.35.16.69.24,1.04-.02.02-.02.03,0,.05-.07.48-.29.87-.71,1.13-.13.08-.23.21-.21.38.02.16.05.31.1.46.13.34.1.63-.17.89-.11.11-.22.21-.39.36.2,0,.33.02.44,0,.33-.07.65-.16.98-.24.88-.22,1.75-.49,2.65-.66.17-.03.34-.11.5-.18.07-.03.13-.11.16-.18.16-.36.29-.72.45-1.07.27-.61.55-1.21.85-1.81.08-.16.22-.29.33-.43.13,0,.26,0,.39,0,.36.29.71.59,1.07.88.41.33.45.59.17,1.03-.11.16-.25.3-.33.47-.08.17-.15.36-.15.54,0,.27.16.36.42.3.77-.17,1.53-.38,2.3-.56.49-.12.98-.21,1.47-.33.75-.18,1.49-.37,2.24-.55.46-.11.93-.2,1.39-.31.38-.09.75-.21,1.13-.31.47-.13.94-.25,1.4-.4.48-.16.95-.36,1.42-.54.18-.07.35-.15.52-.23.13-.04.27-.07.39-.13.89-.38,1.81-.63,2.78-.7.28,0,.55-.01.83-.02.2-.04.33-.18.46-.33.26-.29.58-.47.96-.57.26-.06.52-.17.78-.26.05-.01.09-.03.14-.04.23-.1.5-.15.7-.3.6-.42,1.18-.88,1.77-1.32Zm-33.99,12.27h0c-.08-.15-.2-.07-.32-.06-.4.07-.65.33-.72.7-.11.52.1.94.38,1.35.04.06.1.1.16.16.33-.4.59-.79.58-1.31.12-.07.06-.17.04-.27-.03-.18-.07-.35-.1-.53v-.03s-.01-.02-.01-.02Zm9.35,6.57c0,.07,0,.13-.01.2,0,.02,0,.05,0,.07,0,.08,0,.17,0,.25.01.02.03.03.04.05.52-.14.82-.45.64-1.02-.08-.25-.18-.5-.46-.66-.2.29-.18.61-.22.92,0,.06.01.13.02.19Zm-5.5,2.21c.21-.05.39-.1.56-.14.61-.13,1.23-.26,1.84-.39.19-.04.36-.13.43-.34.12-.33.27-.65.36-.99.21-.79.39-1.59.58-2.39.06-.25.07-.51.15-.75.07-.23-.03-.35-.18-.48-.49-.44-.97-.88-1.45-1.34-.52-.49-1-1.01-1.36-1.63-.09-.16-.18-.33-.29-.51-.44.22-.8.5-1.06.9-.25.39-.49.78-.54,1.27-.03.31-.11.62-.19.92-.09.37-.17.75-.29,1.11-.16.46-.37.91-.73,1.23,0,.06,0,.09.01.1.56.79,1.12,1.58,1.68,2.36.22.31.42.62.47,1.06Zm2.98-9.83c.52.73.96,1.45,1.53,2.07.12-.22.22-.44.35-.63.24-.33.36-.69.35-1.1,0-.33.05-.64.34-.85.02-.01.02-.05.03-.11-.87.11-1.67.4-2.5.57-.04,0-.08.03-.11.05Z"/><path d="m35.6,75.64h3.12l9.88-14.62h12.48l-13.63,18.95,14.73,19.59h-12.65l-10.75-15.19h-3.18v15.19h-10.34v-38.54h10.34v14.62Z"/><path d="m72.69,92.91l-1.85,6.64h-10.75l11.56-38.54h15.66l11.73,38.54h-10.51l-2.02-6.64h-13.81Zm6.93-24.21l-4.74,16.75h9.59l-4.85-16.75Z"/><path d="m121.63,73.04v-.69c0-3.06-1.04-3.76-5.43-3.76-5.03,0-6.24.69-6.24,3.76,0,1.27.29,2.2.87,2.66.64.58.98.64,4.28.87,9.36.69,9.48.69,11.9,1.44,4.22,1.33,5.6,3.87,5.6,10.05,0,5.2-.75,7.86-2.72,9.59-2.54,2.2-5.66,2.89-13.29,2.89-9.82,0-13.52-.98-15.48-4.1-1.21-1.91-1.56-3.99-1.56-8.67h9.82v.75c0,1.62.35,2.6,1.16,3.18.87.69,1.33.75,6.07.75,3.35,0,3.87-.06,4.74-.81.75-.63,1.1-1.5,1.1-3.06,0-2.71-.81-3.35-4.85-3.58-6.3-.35-9.47-.69-11.44-1.16-4.8-1.21-6.53-4.04-6.53-10.92,0-4.68.98-7.57,3.18-9.13,2.54-1.79,5.78-2.37,13.29-2.37,8.09,0,11.38.81,13.35,3.29,1.44,1.73,2.08,4.04,2.08,7.28l-.06,1.73h-9.82Z"/><path d="m148.15,99.56h-10.34v-38.54h10.34v38.54Z"/><path d="m163.87,92.91l-1.85,6.64h-10.75l11.56-38.54h15.66l11.73,38.54h-10.51l-2.02-6.64h-13.81Zm6.93-24.21l-4.74,16.75h9.59l-4.85-16.75Z"/><path d="m276.84,75.64h3.12l9.88-14.62h12.48l-13.63,18.95,14.73,19.59h-12.65l-10.75-15.19h-3.18v15.19h-10.34v-38.54h10.34v14.62Z"/><path d="m331.91,62.06c3.7,1.62,5.83,4.33,6.64,8.43.4,1.79.52,4.62.52,9.99,0,8.32-.4,10.98-2.25,13.87-2.54,4.04-6.93,5.49-16.35,5.49-6.01,0-9.01-.52-11.5-2.08-3-1.85-4.62-4.28-5.37-8.03-.29-1.62-.4-3.58-.4-7.4,0-6.99.29-10.75,1.04-13.35.87-3.23,3.53-5.83,7.4-7.22,2.08-.69,5.2-1.04,10.11-1.04,5.26,0,7.91.35,10.17,1.33Zm-17.28,9.82c-.64,1.27-.81,3.18-.81,8.9,0,9.53.46,10.17,7.51,10.17,4.22,0,5.55-.58,6.41-2.77.58-1.5.75-3.24.75-8.32s-.12-6.53-.69-7.91c-.81-1.85-2.2-2.37-6.36-2.37-4.51,0-5.89.46-6.82,2.31Z"/><path d="m389.22,99.56h-14.85l-2.66-12.08c-.92-3.99-1.73-8.03-2.54-12.07h-.4c-.12.58-.4,1.91-.64,3-.35,1.73-.58,2.89-.64,3.06-.46,2.02-.92,3.99-1.44,6.01l-2.89,12.08h-14.68l-8.26-38.54h10.34l2.89,14.85,1.39,7.45c.46,2.43.87,4.85,1.27,7.4h.4l.81-3.7.87-3.7,1.85-7.45,3.7-14.85h10.63l3.58,14.85c1.16,4.97,1.91,8.15,2.2,9.65.4,1.73.75,3.41,1.16,5.2h.35c.87-4.91,1.79-9.82,2.83-14.85l3-14.85h10.34l-8.61,38.54Z"/><path d="m409.62,92.91l-1.85,6.64h-10.75l11.56-38.54h15.66l11.73,38.54h-10.51l-2.02-6.64h-13.81Zm6.93-24.21l-4.74,16.75h9.59l-4.85-16.75Z"/><path d="m448.05,90.72h16.18v8.84h-26.52v-38.54h10.34v29.7Z"/><path d="m488.61,73.04v-.69c0-3.06-1.04-3.76-5.43-3.76-5.03,0-6.24.69-6.24,3.76,0,1.27.29,2.2.87,2.66.63.58.98.64,4.27.87,9.36.69,9.48.69,11.9,1.44,4.22,1.33,5.6,3.87,5.6,10.05,0,5.2-.75,7.86-2.72,9.59-2.54,2.2-5.66,2.89-13.29,2.89-9.82,0-13.52-.98-15.48-4.1-1.21-1.91-1.56-3.99-1.56-8.67h9.82v.75c0,1.62.35,2.6,1.16,3.18.87.69,1.33.75,6.07.75,3.35,0,3.87-.06,4.74-.81.75-.63,1.1-1.5,1.1-3.06,0-2.71-.81-3.35-4.85-3.58-6.3-.35-9.48-.69-11.44-1.16-4.8-1.21-6.53-4.04-6.53-10.92,0-4.68.98-7.57,3.18-9.13,2.54-1.79,5.78-2.37,13.29-2.37,8.09,0,11.38.81,13.35,3.29,1.44,1.73,2.08,4.04,2.08,7.28l-.06,1.73h-9.82Z"/><path d="m515.53,75.64h3.12l9.88-14.62h12.48l-13.63,18.95,14.73,19.59h-12.65l-10.75-15.19h-3.18v15.19h-10.34v-38.54h10.34v14.62Z"/><path d="m552.4,92.91l-1.85,6.64h-10.75l11.55-38.54h15.66l11.73,38.54h-10.51l-2.02-6.64h-13.81Zm6.93-24.21l-4.74,16.75h9.59l-4.85-16.75Z"/></svg>