<?xml version="1.0" encoding="UTF-8"?><svg id="Warstwa_1" xmlns="http://www.w3.org/2000/svg" viewBox="0 0 290 160"><defs><style>.cls-1{fill:none;}.cls-2{fill:#faccd2;}.cls-3{fill:#f1adbf;}.cls-4{fill:#f69aac;}.cls-5{fill:#faeef1;}.cls-6{fill:#faeff2;}.cls-7{fill:#de0114;}.cls-8{fill:#dd0110;}.cls-9{fill:#df022a;}.cls-10{fill:#df012a;}</style></defs><rect class="cls-1" width="290" height="160"/><path class="cls-10" d="m129.48,103.59c.1,0,.2,0,.29,0,.07,0,.13,0,.2,0,.21,0,.41,0,.62,0,.12,0,.24,0,.36-.01.1,0,.19,0,.29,0,.12,0,.24,0,.36,0,.26,0,.52.01.78.02.07,0,.13,0,.2,0,.15,0,.3,0,.46,0,.07,0,.13,0,.2,0,2.23-.04,4.43-.29,6.61-.83.9-.23,1.87-.21,2.82-.26,1.71-.08,3.42-.08,5.12-.18,1.72-.11,3.43-.31,5.15-.46,1.53-.13,3.07-.28,4.61-.34,2.48-.09,4.96-.2,7.43-.15,1.88.04,3.75.35,5.63.45,1.5.08,3.01.04,4.52.02.95-.01,1.89-.12,2.83-.15,2.04-.07,4.07-.18,6.11-.15,2.87.03,5.74.17,8.61.26.12,0,.23,0,.35-.01.93-.09,1.91-.02,2.77-.32,1.6-.54,3.05-.08,4.57.27,1.4.32,2.82.56,4.25.74,1.18.15,2.27-.27,3.35-.73.5-.22,1.08-.41,1.61-.38,2.39.16,4.78.32,7.15.66,1.59.23,3.13.8,4.71,1.15.84.18,1.7.25,2.56.29,1.9.09,3.8.03,5.69.19,2.99.25,6.02.13,8.98.9,1.39.36,2.82.7,4.37.43,2.18-.39,4.19.56,6.25,1.18,1.65.5,3.4.67,5.12.9,1.86.25,3.73.43,5.6.61,1.02.1,2.05.23,3.07.2.9-.03,1.33.46,1.7,1.14.21.4.43.79.64,1.19v1.81c-.73.13-.61.87-.91,1.31-1.52,2.25-5.18,2.91-7.31,2.54-1.87-.32-3.73-.71-5.61-.87-2.24-.18-4.5-.13-6.75-.22-1.36-.05-2.67-.3-3.73-1.28-.25-.23-.58-.46-.9-.49-1.76-.2-3.53-.46-5.3-.49-2.66-.05-5.32.07-7.99.12.02-.64-.44-.77-.92-.78-1.17-.03-2.34-.05-3.51.02-.28.02-.54.39-.81.6-1.75-.1-3.51-.18-5.26-.31-1.85-.14-3.7-.33-5.55-.49-1.96-.17-3.92-.38-5.88-.47-1.69-.08-3.38-.05-5.08-.02-1.8.03-3.6.06-5.4.17-1.72.11-3.43.37-5.15.47-.91.05-1.84-.06-2.75-.16-1.55-.16-3.08-.42-4.63-.56-1.59-.14-3.19-.29-4.78-.22-1.93.09-3.85.53-5.77.58-2.05.05-4.11-.11-6.15-.31-2.36-.23-4.67-.18-7.01.25-1.59.3-3.25.22-4.88.31h-.17c-3.29.04-6.58.08-9.87.13-.13,0-.27.03-.4.06-1.26.32-2.43.85-3.79.99-1.98.2-3.94.32-5.89.05-2.18-.3-4.29-.18-6.36.57-2.96,1.08-5.99.72-9.02.5-1.39-.1-2.83-.22-4.19.02-1.52.27-3.01.68-4.58.81-2.84.24-5.65.76-8.48,1.07-.93.1-1.88-.11-2.83-.13-1.43-.03-2.87-.1-4.29-.02-1.56.09-3.1.37-4.66.48-.99.07-1.91.21-2.74.84-.76.58-1.63.87-2.65.53-.57-.19-1.22-.14-1.84-.21-1.1-.12-2.13.41-3.16.43-2.26.04-4.52-.26-6.78-.38-1.18-.07-2.41-.3-3.53-.04-3.43.81-6.78,1.9-10.21,2.72-3.2.76-6.47,1.22-9.78,1.21-1.31,0-2.64-.15-3.92.03-2.09.29-4.16.75-6.22,1.23-2.24.52-4.45,1.15-6.67,1.74-1.32-.01-2.64-.07-3.96,0-.33.02-.64.41-.95.63h-.82c-.07-.14-.12-.31-.23-.41-1.36-1.2-1.37-3.01-.16-4.36,1.19-1.33,2.71-1.94,4.37-1.93,3.95.01,7.52-1.34,11.14-2.66,1.86-.68,3.79-1.18,5.8-1.15.37,0,.75.07,1.11.14,2.51.48,4.84-.44,7.19-1.02,1.83-.45,3.57-1.29,5.4-1.75,1.66-.41,3.4-.48,5.08-.82,2.6-.52,5.17-1.15,7.76-1.73,1.13-.25,2.25-.54,3.39-.71.54-.08,1.13,0,1.68.12,2.11.48,4.1-.35,6.15-.51.53-.04,1.07-.08,1.6-.11.17.15.33.44.5.44,1.25.04,2.51.06,3.76,0,.28-.01.54-.39.81-.6.71-.12,1.41-.26,2.12-.35,2.85-.34,5.71-.69,8.57-.99,1.11-.12,2.23-.17,3.35-.17,1.21,0,2.32-1.02,2.35-2.29.06-2.37.32-4.73,1.02-6.99.55-1.8,1.36-3.51,2.08-5.26.55-1.34,1.22-2.64,1.68-4.01.22-.66.2-1.47.07-2.17-.09-.46-.51-.92-.89-1.24-1.1-.94-2.47-1.61-3-3.09-.28-.78-.51-1.57-.78-2.36-.08-.23-.15-.51-.32-.66-.24-.22-.56-.44-.87-.46-.19-.01-.47.31-.59.54-.41.78-.62,1.72-1.17,2.37-.77.91-1.68,1.76-2.69,2.38-2.41,1.47-4.8,3.02-7.64,3.58-2.76.54-5.3-.21-6.28-3.1-.13-.37-.15-.79-.14-1.19.04-1.58,0-3.17.22-4.72.12-.87.59-1.72,1.03-2.51,1.07-1.91,2.13-3.84,3.34-5.66,1.61-2.41,3.68-4.24,6.84-4.03.76.05,1.54.24,2.26.52,1.31.51,2.41.26,3.46-.69,1.77-1.59,2.47-3.78,3.49-5.81,1.53-3.04,3.01-6.11,5.03-8.87.4-.55.83-1.08,1.31-1.56.67-.68,1.48-.35,2.21-.14.82.24,1.08.93,1.15,1.73.23,2.48-.35,4.71-1.84,6.73-.73.99-.35,3.14.62,3.9,1.28,1,1.53,1.98.87,3.43-.61,1.34-1.15,2.72-1.89,4-1.02,1.77-1.83,3.61-2.43,5.56-.45,1.48-.31,2.79.65,4.03.9,1.16,1.9,1.12,2.61-.18.5-.9.91-1.86,1.46-2.73.51-.81,1.11-1.56,1.73-2.3,1.43-1.7,2.86-3.4,4.35-5.06.81-.9,1.66-1.8,2.62-2.53,1.47-1.11,2.68-.76,3.49.87.08.17.15.35.25.5.6.91.7,1.79.16,2.81-.47.89-.54,2.01-1.09,2.83-2.11,3.2-4.33,6.33-6.52,9.48-.92,1.32-1.96,2.57-2.8,3.95-.99,1.62-1.88,3.3-2.7,5.01-.76,1.56-1.37,3.19-2.05,4.79-.53,1.25-1.04,2.51-1.61,3.74-.47,1.01-.41,2.05-.25,3.09.18,1.17,1.15,1.62,2.11,1.79,2.06.35,4.1.19,6.16-.34,2.12-.55,4.32-.91,6.54-.48.28,0,.57-.02.85-.02Zm-28.46-31.14c-1.57-.1-2.71.39-3.62,1.5-.73.89-1.55,1.71-2.33,2.57-.12.14-.28.3-.3.47-.09.75-.17,1.5-.16,2.25,0,.2.29.54.47.56.38.04.85.03,1.16-.16,2.22-1.32,3.68-3.29,4.54-5.71.16-.44.15-.93.24-1.48Z"/><path class="cls-9" d="m67.88,35c.05.11.07.27.16.33.98.66,1.29,1.19.95,2.28-.45,1.42-1.01,2.81-1.64,4.16-.93,1.99-1.89,3.98-2.97,5.89-.93,1.63-2.04,3.16-3.11,4.71-1.34,1.94-2.73,3.84-4.07,5.78-.37.55-.67,1.16-.91,1.78-.51,1.31-1.3,2.42-2.12,3.56-1.1,1.53-1.98,3.22-2.92,4.86-.75,1.31-1.46,2.64-2.17,3.97-.32.59-.54,1.24-.88,1.82-.64,1.09-1.4,2.11-2,3.21-.84,1.55-1.59,3.15-2.36,4.74-.87,1.78-1.73,3.57-2.59,5.36-.09.19-.16.39-.23.59-.49,1.48-.26,1.91,1.21,1.78,1.6-.14,3.18-.44,4.75-.77,3.33-.69,6.65-1.42,9.97-2.17,1.8-.4,3.6-.81,5.36-1.34,1.89-.57,2.63-2.17,2.95-3.94.27-1.51.78-2.88,1.52-4.21.69-1.23,1.14-2.6,1.85-3.81.94-1.6,2.02-3.12,3.07-4.65,1.55-2.29,4.03-3.29,6.37-4.42,1.16-.56,2.51-.52,3.65.28,1.66,1.16,3.34,2.31,4.9,3.6,1.1.9,1.19,2.3,1.05,3.61-.15,1.37-.43,2.75-.83,4.07-.2.64-.78,1.17-1.22,1.72-1.12,1.39-2.33,2.72-3.36,4.18-.31.44-.23,1.23-.16,1.84.08.65.41,1.26.57,1.9.39,1.53-.86,2.98-2.42,3.22-1.76.27-3.35-.17-4.98-.61-1.01-.28-1.98-.38-2.98.06-.4.18-.88.21-1.33.25-1.52.14-2.73,1.13-4.14,1.52-2.2.62-4.46,1.09-6.72,1.5-1.56.28-3.16.31-4.73.52-1.09.15-2.16.43-3.25.64-1.55.3-3.14.43-4.64.89-3.17.96-6.28,2.12-9.43,3.14-1.06.34-2.18.56-3.29.72-.78.11-1.54-.66-1.76-1.42-.45-1.55.01-3.02.42-4.44.32-1.11.94-2.16,1.55-3.16,1.72-2.8,3.21-5.7,4.01-8.9.37-1.5,1.53-2.45,2.37-3.62.41-.57.81-1.15,1.15-1.77,2.01-3.63,4.02-7.27,5.99-10.92.56-1.05,1.06-2.14,1.49-3.25.6-1.57,1.61-2.84,2.63-4.15,1.11-1.42,1.98-3.02,2.99-4.52,1.34-1.99,2.66-4,4.09-5.93,2.04-2.73,4.14-5.42,5.34-8.67.25-.68.71-1.2,1.49-1.37.2-.04.36-.28.54-.43.27,0,.55,0,.82,0Zm3.45,44.78c-.02,1.66.94,2.26,2.2,1.62,1.75-.9,3.59-3,3.56-5.29-.01-1.1.4-2.2.61-3.3.06-.31.14-.63.16-.95.04-.56-.36-.72-.73-.51-.78.45-1.7.87-2.2,1.56-1.04,1.47-1.89,3.08-2.73,4.68-.42.79-.67,1.68-.87,2.2Z"/><path class="cls-6" d="m31.35,124.38c-.05.21-.11.41-.16.62h-4.75c.32-.22.63-.61.95-.63,1.32-.06,2.64,0,3.96,0Z"/><path class="cls-5" d="m175.65,35.77c0-.26,0-.51,0-.77,1.04,0,2.07,0,3.11,0-.22.26-.44.53-.65.79-.82,0-1.64-.02-2.46-.03Z"/><path class="cls-10" d="m205.77,70.53c-.23.77-.39,1.57-.69,2.3-.68,1.63-.51,3.27-.07,4.89.05.19.55.44.72.37.6-.24,1.16-.59,1.73-.92,1.98-1.14,3.12-2.9,3.94-5,.48-1.22,1.38-2.27,2.09-3.4.49-.78.95-1.58,1.44-2.36.26-.41.48-.88.83-1.19,1.14-1,2.31-.4,3.22,1.14.6,1.02.78,2.32,1.04,3.52.31,1.39.67,1.66,1.83.89,2.38-1.58,5.06-2.25,7.77-2.94.79-.2,1.53-.63,2.26-1.01,1.28-.67,2.52-1.36,3.98-1.71,1.86-.45,3.59-1.4,5.43-1.97,1.25-.39,2.58-.48,3.88-.72.41-.08.88-.12,1.21-.34,1.34-.88,2.8-.45,4.19-.4.85.03,2.93,2.67,3.03,3.53.12,1.04-.64,2.31-1.75,2.62-1.46.41-3.01.55-4.45,1.01-2.59.84-5.15,1.81-7.7,2.78-.84.32-1.57,1.01-2.42,1.18-3.35.66-6.33,2.34-9.57,3.27-.57.16-1.11.4-1.67.6-.63.22-1.34.35-1.41,1.22-.07.94.33,1.66,1.15,2.05,1.4.67,2.83,1.28,4.27,1.86.89.36,1.86.51,2.71.93.68.34,1.33.85,1.82,1.43,1.22,1.45,2.84,2.47,4.49,3.04,2.29.8,3.63,2.76,5.63,3.82.09.05.17.14.24.22,1.14,1.51,1.7,3.26,1.94,5.09.14,1.1-.72,1.66-1.77,1.22-2.23-.92-4.48-1.81-6.46-3.25-1.94-1.41-3.83-2.89-5.84-4.18-1.74-1.11-3.61-2.03-5.44-2.99-.36-.19-.85-.12-1.25-.25-.96-.31-1.9-.67-2.85-1.02-2.03-.75-4.01-1.71-6.09-2.19-1.21-.28-2.69-.01-3.86.46-.76.31-1.39,1.35-1.74,2.2-.54,1.32-.79,2.76-1.18,4.14-.09.3-.19.72-.42.83-1.11.57-1.72,1.54-2.26,2.58-.48.92-1.43,1.31-2.2,1.13-.99-.23-2.07-.68-2.61-1.78-.9-1.81-.59-3.55.22-5.27.62-1.3,1.16-2.61,1.2-4.08.02-.51.03-1.1-.54-1.19-.51-.08-1.27-.06-1.58.25-.77.78-1.37,1.73-1.99,2.64-.94,1.38-1.89,2.77-2.75,4.2-.53.88-1.28,1.43-2.22,1.3-1.28-.17-2.05-1.09-2.37-2.35-.47-1.82-.1-3.58.69-5.18.84-1.71,2-3.27,2.9-4.95.46-.85.69-1.82.96-2.75.06-.22-.11-.74-.2-.74-.44-.03-.9.01-1.31.13-.19.06-.34.34-.45.56-1.7,3.18-3.37,6.38-5.11,9.53-.61,1.1-1.36,2.14-2.12,3.15-.52.69-1.3.71-2.04.36-.76-.35-1.52-.73-2.23-1.16-1.28-.78-2.5-.78-3.77.04-1.02.66-2.2.94-3.3.42-.85-.4-1.57-1.12-2.26-1.79-.72-.7-1.5-1.16-2.52-1.11-.21.01-.42.07-.62.14-1.62.55-3.31.66-4.98.47-.74-.08-1.56-.53-2.11-1.06-1.02-.99-1.95-2.11-2.76-3.28-.37-.53-.46-1.3-.52-1.98-.28-3.23.6-6.24,1.86-9.17.89-2.09,2.55-3.56,4.19-5,1.03-.91,2.2-1.66,3.27-2.51,1.38-1.1,3.09-1.25,4.71-1.56.98-.19,2.02-.08,3.03-.02,1.38.09,2.24,1.08,2.24,2.43,0,1.6.4,2.16,1.94,2.64.6.19,1.79,1.85,1.83,2.56.11,2.43-.08,4.83-1,7.11-.45,1.12-1.09,2.18-1.52,3.31-.45,1.2.11,2.09,1.16,1.97.3-.04.61-.22.85-.42,1.26-1.05,1.88-2.51,2.45-3.98.83-2.13,1.9-4.11,3.12-6.05.77-1.21,1.01-2.76,1.49-4.15.61-1.78,1.2-3.59,2.83-4.75.73-.52,2.14-.27,2.65.48.34.49.68,1.02.84,1.58.59,2.02,1.86,2.17,3.51,2.35.32.04.66.04.98,0,2.95-.34,4.21,1.74,4.24,4.16Zm-31.54.68c-1.1-.14-1.95-.21-2.56.44-1.46,1.55-2.91,3.12-4.23,4.78-.29.37-.22,1.27.03,1.75.16.33.92.44,1.42.47.35.02.75-.23,1.09-.43,1.41-.86,2.32-2.15,2.98-3.63.47-1.07.83-2.19,1.28-3.38Z"/><path class="cls-9" d="m175.65,35.77c.82,0,1.64.02,2.46.03,1.7.29,3.4.8,4.62,1.97.68.65.99,1.9,1.06,2.91.13,1.95-.21,3.86-1.24,5.61-1.1,1.85-2.02,3.81-3.18,5.62-.64.99-1.56,1.82-2.45,2.6-2.57,2.27-5.19,4.49-7.8,6.71-.36.3-.82.58-1.27.67-1,.19-1.76.7-2.52,1.34-2.01,1.66-4.45,2.46-6.94,2.78-3.21.41-5.12,2.23-6.28,5.02-1.48,3.55-2.63,7.22-3.47,10.98-.13.57-.3,1.13-.48,1.69-.09.28-.16.62-.36.8-.4.36-.89.83-1.34.84-.3,0-.74-.67-.91-1.12-.55-1.51-.35-3.08-.24-4.64.13-1.8.49-3.61,1.43-5.09,1.19-1.88,1.51-3.96,2.11-6.01.43-1.47,1.13-2.85,1.7-4.28.26-.65.62-1.3.67-1.96.08-1.02.58-1.76,1.14-2.53,2.26-3.06,3.81-6.47,5.15-10.03.62-1.65,1.84-3.06,2.79-4.59.91-1.47,1.92-2.82,3.55-3.57.16-.08.32-.23.41-.39.78-1.39,2.16-2,3.47-2.68,1.56-.82,3.15-1.56,4.74-2.32.18-.09.41-.11.62-.13.86-.08,1.72-.15,2.58-.23Zm-.16,6.3c-1.69.04-3.47.94-5.31,1.74-3.76,1.64-6.61,4.24-8.66,7.77-.76,1.31-1.5,2.63-2.1,4.01-.56,1.28.02,2.44,1.21,2.55,1.01.09,1.96-.15,2.7-.96.43-.48.88-.96,1.42-1.31,1.38-.91,2.85-1.67,4.19-2.62,1.39-.98,2.78-2.01,3.97-3.21,1.48-1.49,2.76-3.19,4.11-4.81.34-.41.74-.84.89-1.33.33-1.05-.6-1.83-2.42-1.83Z"/><path class="cls-8" d="m90.97,107.95c-.27.21-.53.59-.81.6-1.25.07-2.51.05-3.76,0-.17,0-.33-.29-.5-.44.31-.06.62-.18.93-.18,1.38-.01,2.77,0,4.15.02Z"/><path class="cls-4" d="m129.48,103.59c-.28,0-.57.02-.85.02.28,0,.57-.02.85-.02Z"/><path class="cls-3" d="m193.02,101.79c-.12,0-.23,0-.35.01.12,0,.23,0,.35-.01Z"/><path class="cls-4" d="m130.96,103.59c-.12,0-.24,0-.36.01.12,0,.24,0,.36-.01Z"/><path class="cls-4" d="m131.61,103.57c-.12,0-.24,0-.36,0,.12,0,.24,0,.36,0Z"/><path class="cls-4" d="m129.97,103.6c-.07,0-.13,0-.2,0,.07,0,.13,0,.2,0Z"/><path class="cls-4" d="m132.59,103.6c-.07,0-.13,0-.2,0,.07,0,.13,0,.2,0Z"/><path class="cls-4" d="m133.25,103.6c-.07,0-.13,0-.2,0,.07,0,.13,0,.2,0Z"/><path class="cls-7" d="m226.92,112.66c-1.75-.05-3.49-.11-5.24-.16.27-.21.53-.58.81-.6,1.17-.07,2.34-.05,3.51-.02.48.01.94.14.92.78Z"/><path class="cls-2" d="m153.38,111.75c-.06,0-.11,0-.17,0,.06,0,.11,0,.17,0Z"/></svg>