<?xml version="1.0" encoding="UTF-8"?><svg id="Warstwa_1" xmlns="http://www.w3.org/2000/svg" viewBox="0 0 230 160"><defs><style>.cls-1{fill:none;}</style></defs><rect class="cls-1" width="230" height="160"/><path d="m201.98,71.07l2.92-6.04h-22.13c-4.51-14.5-18.04-25.03-34.02-25.03-19.67,0-35.62,15.95-35.62,35.62,0,1.16.06,2.3.17,3.43l-13.36-37.29-20.58,42.7-20.58-42.7-8.33,23.27h-25.34l2.92,6.04h20.26l-.55,1.53h-18.97l2.92,6.04h13.89l-.53,1.49h-12.64l2.92,6.04h7.56l-8.39,23.41h17.07l8.82-25.63,18.99,36.05,18.99-36.05,8.82,25.63h17.07l-5.05-14.09c6.4,9.5,17.25,15.75,29.57,15.75,16,0,29.54-10.55,34.03-25.07h11.91l2.92-6.04h-13.52c.06-.49.11-.99.15-1.49h14.08l2.92-6.04h-17c-.04-.51-.1-1.03-.16-1.53h17.9Zm-53.23,23.49c-10.46,0-18.94-8.48-18.94-18.94s8.48-18.94,18.94-18.94,18.94,8.48,18.94,18.94-8.48,18.94-18.94,18.94Z"/></svg>