<?xml version="1.0" encoding="UTF-8"?><svg id="Warstwa_1" xmlns="http://www.w3.org/2000/svg" viewBox="0 0 345 160"><defs><style>.cls-1{fill:none;}.cls-2{fill:#2c3157;}</style></defs><rect class="cls-1" width="345" height="160"/><path class="cls-2" d="m32.88,75.14v9.58h-7.69v-18.55h7.62v3.28c.23-.34.51-.69.84-1.03.33-.34.8-.74,1.4-1.17.6-.44,1.36-.79,2.28-1.07.92-.28,1.92-.41,3-.41h.38c2.57,0,4.48.75,5.71,2.24,1.23,1.49,1.84,3.51,1.84,6.03v1.07h-7.41c0-1.31-.32-2.38-.95-3.21-.63-.83-1.63-1.24-2.98-1.24h-.03c-1.24,0-2.22.43-2.93,1.29-.71.86-1.07,1.93-1.07,3.19Z"/><path class="cls-2" d="m63.97,85.24c-2.07,0-3.9-.2-5.5-.59-1.6-.39-2.88-.9-3.84-1.53-.97-.63-1.76-1.38-2.38-2.24-.62-.86-1.05-1.71-1.28-2.55-.23-.84-.34-1.73-.34-2.67v-.62c0-.92.11-1.79.34-2.62.23-.83.65-1.67,1.26-2.52.61-.85,1.4-1.58,2.36-2.19.97-.61,2.25-1.1,3.84-1.48,1.6-.38,3.43-.57,5.5-.57h2.45c8.85,0,13.27,3.13,13.27,9.38v.62c0,.97-.09,1.85-.26,2.65-.17.8-.55,1.65-1.12,2.55-.57.9-1.33,1.65-2.26,2.26s-2.22,1.12-3.86,1.52c-1.64.4-3.57.6-5.77.6h-2.41Zm-3.93-6.41c1.03.94,2.75,1.41,5.14,1.41s4.1-.47,5.14-1.41c1.03-.94,1.55-2.07,1.55-3.38v-.17c0-1.33-.52-2.45-1.55-3.34-1.03-.9-2.74-1.34-5.1-1.34h-.03c-2.41,0-4.13.44-5.15,1.33-1.02.89-1.53,2.01-1.53,3.36v.17c0,1.31.52,2.44,1.55,3.38Z"/><path class="cls-2" d="m96.97,85.24h-1.9c-2.02,0-3.82-.2-5.4-.6-1.57-.4-2.82-.92-3.74-1.55-.92-.63-1.68-1.38-2.28-2.26-.6-.87-1-1.72-1.21-2.55-.21-.83-.31-1.69-.31-2.59v-.69c0-.9.1-1.75.31-2.57.21-.82.6-1.65,1.19-2.5.59-.85,1.34-1.58,2.28-2.19.93-.61,2.18-1.11,3.74-1.5,1.56-.39,3.36-.59,5.38-.59h1.96c1.84,0,3.49.14,4.96.41,1.47.28,2.66.65,3.57,1.14.91.48,1.68,1,2.31,1.55.63.55,1.1,1.15,1.4,1.79.3.64.51,1.22.62,1.72.11.51.17,1,.17,1.48v.1h-7.9c-.53-2.23-2.57-3.34-6.14-3.34h-.1c-2.07,0-3.57.43-4.5,1.29-.93.86-1.4,1.96-1.4,3.29v.24c0,1.4.47,2.58,1.4,3.53.93.95,2.43,1.43,4.5,1.43h.1c1.19,0,2.22-.13,3.09-.4.86-.26,1.49-.61,1.9-1.05.4-.44.68-.8.84-1.1.16-.3.26-.59.31-.86h7.9v.07c0,.64-.07,1.27-.21,1.88-.14.61-.47,1.32-1,2.14-.53.82-1.24,1.52-2.12,2.1-.89.59-2.17,1.09-3.84,1.52-1.68.43-3.64.64-5.9.64Z"/><path class="cls-2" d="m120.96,84.72h-7.69v-51.73h7.69v40.6l7.52-7.41h8.52l-8.76,8.38,9.83,10.17h-9.03l-8.07-8.52v8.52Z"/><path class="cls-2" d="m143.2,84.72v-25.65h7.69v10.2c2.44-2.34,5.48-3.52,9.14-3.52h.24c2.99,0,5.24.71,6.76,2.12,1.52,1.41,2.28,3.12,2.28,5.12v33.14h-7.76v-30.59c0-1.45-.41-2.58-1.24-3.4-.83-.82-2.07-1.22-3.72-1.22s-3.1.46-4.14,1.38c-1.03.92-1.55,2.14-1.55,3.65v8.76h-7.69Z"/><path class="cls-2" d="m185.91,85.24c-2.07,0-3.9-.2-5.5-.59s-2.88-.9-3.84-1.53c-.97-.63-1.76-1.38-2.38-2.24-.62-.86-1.05-1.71-1.28-2.55s-.34-1.73-.34-2.67v-.62c0-.92.12-1.79.34-2.62.23-.83.65-1.67,1.26-2.52.61-.85,1.4-1.58,2.36-2.19.97-.61,2.25-1.1,3.84-1.48,1.6-.38,3.43-.57,5.5-.57h2.45c8.85,0,13.27,3.13,13.27,9.38v.62c0,.97-.09,1.85-.26,2.65-.17.8-.55,1.65-1.12,2.55-.57.9-1.33,1.65-2.26,2.26-.93.61-2.22,1.12-3.86,1.52-1.64.4-3.57.6-5.77.6h-2.41Zm-3.93-6.41c1.03.94,2.75,1.41,5.14,1.41s4.1-.47,5.14-1.41c1.03-.94,1.55-2.07,1.55-3.38v-.17c0-1.33-.52-2.45-1.55-3.34s-2.74-1.34-5.1-1.34h-.03c-2.41,0-4.13.44-5.15,1.33-1.02.89-1.53,2.01-1.53,3.36v.17c0,1.31.52,2.44,1.55,3.38Z"/><path class="cls-2" d="m230.59,66.17v18.55h-7.62v-3.21c-.39.37-.65.62-.79.74-.14.13-.53.42-1.19.88-.65.46-1.26.8-1.83,1.02-.56.22-1.32.44-2.26.65-.94.22-1.92.33-2.93.33h-.28c-2.94,0-5.15-.74-6.62-2.22-1.47-1.48-2.21-3.21-2.21-5.19v-11.55h7.76v9.17c0,1.43.4,2.55,1.21,3.38.8.83,1.99,1.24,3.55,1.24,1.65,0,2.99-.46,4-1.38,1.01-.92,1.52-2.14,1.52-3.65v-8.76h7.69Z"/><path class="cls-2" d="m245.69,85.24c-7.95,0-11.93-2.19-11.93-6.58v-.21h7.93c.09,1.68,1.68,2.52,4.76,2.52h.07c1.33,0,2.37-.09,3.12-.28.75-.18,1.21-.39,1.4-.62.18-.23.28-.52.28-.86v-.07c0-.53-.26-.92-.78-1.19-.52-.26-1.62-.41-3.29-.43l-3.31-.07c-6.67-.16-10-2.09-10-5.79v-.21c0-.62.07-1.18.22-1.69s.48-1.02.98-1.55c.51-.53,1.17-.97,2-1.33.83-.36,1.97-.65,3.41-.88,1.45-.23,3.15-.34,5.1-.34h1.38c7.75,0,11.62,1.94,11.62,5.83v.24h-7.83c-.12-1.26-1.64-1.9-4.59-1.9h-.03c-1.75,0-2.92.11-3.52.33-.6.22-.9.57-.9,1.05v.07c0,.46.27.82.81,1.07.54.25,1.57.39,3.09.41l3.31.07c2.78.05,4.94.31,6.48.79,1.54.48,2.57,1.11,3.09,1.88.52.77.78,1.82.78,3.15v.21c0,.94-.17,1.76-.5,2.46-.33.7-.92,1.36-1.76,1.98-.84.62-2.1,1.1-3.78,1.43-1.68.33-3.75.5-6.2.5h-1.41Z"/><path class="cls-2" d="m289.51,78.2c0,.57-.08,1.14-.24,1.71-.16.56-.52,1.18-1.07,1.84-.55.67-1.26,1.25-2.14,1.74s-2.11.91-3.71,1.24c-1.6.33-3.45.5-5.57.5h-1.96c-2.39,0-4.46-.26-6.21-.78-1.75-.52-3.1-1.24-4.07-2.15-.97-.92-1.67-1.92-2.12-3s-.67-2.26-.67-3.55v-.76c0-1.26.21-2.42.62-3.48.41-1.06,1.09-2.04,2.02-2.95.93-.91,2.26-1.62,4-2.14,1.74-.52,3.81-.78,6.22-.78h2.1c8.6,0,12.89,3.33,12.89,10v1.28h-20.31c.51,2.41,2.69,3.62,6.55,3.62h.03c.97,0,1.82-.07,2.57-.21.75-.14,1.33-.3,1.74-.48.41-.18.75-.4,1.02-.64.26-.24.44-.44.53-.6.09-.16.15-.31.17-.45h7.58v.03Zm-13.89-8.24c-3.49,0-5.55,1.05-6.17,3.14h12.41c-.51-2.09-2.57-3.14-6.2-3.14h-.04Z"/><polygon class="cls-2" points="302.27 58.85 298.14 46.11 284.74 46.11 295.58 38.24 291.44 25.5 302.27 33.37 313.11 25.5 308.97 38.24 319.81 46.11 306.41 46.11 302.27 58.85"/><path class="cls-2" d="m29.87,131.3v.84h-4.68v-7.58h4.67v.84h-3.65v2.52h2.95v.8h-2.95v2.59h3.65Z"/><path class="cls-2" d="m44.11,124.56v7.58h-.51c-.08,0-.15-.01-.2-.04-.05-.03-.11-.08-.16-.14l-4.39-5.71c0,.09.01.17.02.26s0,.16,0,.24v5.4h-.9v-7.58h.53s.08,0,.12,0,.06.01.08.03c.02.01.05.03.07.05.02.02.05.05.08.09l4.39,5.71c0-.09-.01-.18-.02-.27,0-.09,0-.17,0-.25v-5.37h.9Z"/><path class="cls-2" d="m57.84,125.42h-2.45v6.72h-1.02v-6.72h-2.46v-.86h5.94v.86Z"/><path class="cls-2" d="m70.31,131.3v.84h-4.68v-7.58h4.67v.84h-3.65v2.52h2.95v.8h-2.95v2.59h3.65Z"/><path class="cls-2" d="m84.01,132.14h-.91c-.19,0-.32-.07-.41-.22l-1.97-2.71c-.06-.08-.12-.15-.19-.18s-.18-.06-.32-.06h-.78v3.16h-1.02v-7.58h2.14c.48,0,.89.05,1.24.14s.64.24.87.42.4.4.51.66.16.55.16.87c0,.27-.04.52-.13.75-.08.23-.21.44-.37.63s-.36.34-.59.47c-.23.13-.49.23-.79.3.13.07.24.18.34.32l2.21,3.01Zm-3.5-3.91c.3,0,.56-.04.79-.11.23-.07.42-.18.57-.31.15-.13.27-.29.35-.47s.12-.39.12-.61c0-.45-.15-.79-.44-1.02-.3-.23-.74-.34-1.33-.34h-1.12v2.86h1.08Z"/><path class="cls-2" d="m96.59,125.42h-2.45v6.72h-1.02v-6.72h-2.46v-.86h5.94v.86Z"/><path class="cls-2" d="m109.8,132.14h-.79c-.09,0-.17-.02-.22-.07-.06-.05-.1-.1-.13-.17l-.71-1.83h-3.4l-.71,1.83c-.02.06-.06.12-.12.17-.06.05-.13.07-.22.07h-.79l3.03-7.58h1.04l3.03,7.58Zm-2.14-2.81l-1.19-3.08c-.04-.09-.07-.2-.11-.32s-.08-.25-.11-.39c-.07.29-.15.52-.23.71l-1.19,3.08h2.83Z"/><path class="cls-2" d="m118.49,132.14h-1.03v-7.58h1.03v7.58Z"/><path class="cls-2" d="m133.24,124.56v7.58h-.51c-.08,0-.15-.01-.2-.04-.05-.03-.11-.08-.16-.14l-4.39-5.71c0,.09.01.17.02.26s0,.16,0,.24v5.4h-.9v-7.58h.53s.08,0,.12,0,.06.01.08.03c.02.01.05.03.07.05.02.02.05.05.08.09l4.39,5.71c0-.09-.01-.18-.02-.27,0-.09,0-.17,0-.25v-5.37h.9Z"/><path class="cls-2" d="m149.73,124.56v7.58h-.9v-5.57c0-.07,0-.15,0-.24,0-.08.01-.17.02-.26l-2.6,4.74c-.08.16-.2.24-.37.24h-.15c-.17,0-.29-.08-.37-.24l-2.66-4.76c.02.19.03.36.03.52v5.57h-.9v-7.58h.76c.09,0,.16,0,.21.03.05.02.1.07.14.15l2.62,4.67c.04.08.08.17.12.26.04.09.08.19.11.28.04-.1.07-.19.11-.28.04-.09.08-.18.13-.27l2.57-4.66c.04-.08.09-.13.14-.15s.12-.03.21-.03h.76Z"/><path class="cls-2" d="m163.02,131.3v.84h-4.68v-7.58h4.67v.84h-3.65v2.52h2.95v.8h-2.95v2.59h3.65Z"/><path class="cls-2" d="m177.26,124.56v7.58h-.51c-.08,0-.15-.01-.2-.04-.05-.03-.11-.08-.16-.14l-4.39-5.71c0,.09.01.17.02.26,0,.08,0,.16,0,.24v5.4h-.9v-7.58h.53s.08,0,.12,0,.06.01.08.03c.02.01.05.03.07.05s.05.05.08.09l4.39,5.71c0-.09-.01-.18-.02-.27,0-.09,0-.17,0-.25v-5.37h.9Z"/><path class="cls-2" d="m190.99,125.42h-2.46v6.72h-1.02v-6.72h-2.46v-.86h5.94v.86Z"/><path class="cls-2" d="m208.87,134.5h-1.03v-10.89h1.03v10.89Z"/><path class="cls-2" d="m229.68,131.24c.1,0,.18.03.24.09s.09.14.09.23v.57h-5.06v-.32c0-.07.01-.14.04-.21.03-.07.07-.14.13-.2l2.43-2.44c.2-.2.38-.4.55-.59.17-.19.31-.38.42-.57.12-.19.21-.38.27-.58s.1-.4.1-.63-.04-.42-.11-.58c-.07-.17-.17-.31-.29-.42-.12-.11-.27-.19-.43-.25-.17-.05-.34-.08-.54-.08s-.37.03-.53.08-.31.13-.43.24-.23.22-.31.36c-.08.14-.14.29-.18.45-.04.12-.1.21-.17.25-.07.04-.17.05-.3.03l-.49-.08c.05-.35.15-.65.29-.92.14-.27.32-.49.54-.67s.46-.32.74-.41.58-.14.91-.14.62.05.9.14c.28.1.52.23.72.42.2.18.37.4.48.66.12.26.18.56.18.89,0,.28-.04.54-.13.78-.08.24-.2.47-.34.69s-.31.43-.5.64c-.19.21-.39.42-.6.63l-2,2.04c.14-.04.28-.07.43-.09.14-.02.28-.03.42-.03h2.54Z"/><path class="cls-2" d="m238.47,127.42c.39-.08.76-.13,1.09-.13.39,0,.74.06,1.05.18.3.12.56.28.76.48.2.2.36.45.46.73.1.28.16.58.16.91,0,.4-.07.77-.21,1.09-.14.32-.33.6-.58.83-.25.23-.53.41-.87.53-.33.12-.69.19-1.07.19-.22,0-.44-.02-.64-.07-.2-.04-.4-.1-.57-.18s-.34-.16-.49-.25c-.15-.1-.29-.2-.4-.3l.29-.4c.06-.09.15-.14.25-.14.07,0,.15.03.24.08.09.05.2.12.32.18.13.07.28.13.45.18.17.05.37.08.61.08.26,0,.5-.04.71-.13s.39-.21.55-.36c.15-.16.27-.34.35-.56s.12-.46.12-.74c0-.24-.03-.45-.1-.64-.07-.19-.17-.35-.31-.49-.14-.13-.31-.24-.52-.31-.21-.07-.45-.11-.73-.11-.19,0-.39.02-.6.05-.21.03-.42.08-.63.15l-.59-.17.61-3.54h3.59v.41c0,.13-.04.24-.12.33-.08.09-.22.13-.43.13h-2.38l-.35,1.99Z"/><path class="cls-2" d="m263.5,131.27v.86h-4.3v-7.58h1.02v6.72h3.28Z"/><path class="cls-2" d="m277.46,132.14h-.79c-.09,0-.17-.02-.22-.07-.06-.05-.1-.1-.13-.17l-.71-1.83h-3.4l-.71,1.83c-.02.06-.06.12-.12.17-.06.05-.13.07-.22.07h-.79l3.03-7.58h1.04l3.03,7.58Zm-2.14-2.81l-1.19-3.08c-.04-.09-.07-.2-.11-.32-.04-.12-.08-.25-.11-.39-.07.29-.15.52-.23.71l-1.19,3.08h2.83Z"/><path class="cls-2" d="m289.51,125.42h-2.46v6.72h-1.02v-6.72h-2.46v-.86h5.94v.86Z"/></svg>