<?xml version="1.0" encoding="UTF-8"?><svg id="Warstwa_1" xmlns="http://www.w3.org/2000/svg" viewBox="0 0 410 160"><defs><style>.cls-1{fill:none;}.cls-2{fill:#eb1782;}.cls-3{fill:#fff;}.cls-4{fill:#0d1f2a;}</style></defs><rect class="cls-1" width="410" height="160"/><rect class="cls-4" x="24.52" y="40" width="360.96" height="80"/><path class="cls-3" d="m170.24,69.42c.29-.95.54-1.92.75-2.88.21-.97.31-1.79.31-2.48,0-1.08-.26-1.87-.79-2.38-.53-.51-1.32-.8-2.38-.89v-2.06h12.99v2.06c-.77.17-1.41.46-1.93.89-.52.43-.99,1.02-1.4,1.79-.42.77-.93,2.06-1.56,3.86l-11.68,34.14h-7.41l-7.04-29.25-8.35,29.25h-7.79l-9.38-34.89c-.46-1.7-.86-2.89-1.21-3.55-.35-.66-.75-1.16-1.18-1.5-.44-.33-.99-.58-1.65-.75v-2.06h16.76v2.06c-1.08.12-1.88.43-2.4.9-.52.48-.78,1.15-.78,2.02,0,1.1.3,2.81.9,5.14l5.39,21.65,8.94-31.77h7.04l7.29,31.77,6.57-21.09Z"/><path class="cls-3" d="m205.92,88.08h-13.3l-1.03,2.96c-.29.83-.53,1.64-.72,2.41s-.28,1.6-.28,2.48c0,2.04,1.08,3.13,3.24,3.27v2.06h-13.3v-2.06c.77-.08,1.44-.35,2.02-.81.58-.46,1.11-1.08,1.59-1.87.48-.79.99-1.92,1.53-3.4l12.99-34.61h8.32l10.28,34.89c.46,1.56.84,2.66,1.15,3.32s.72,1.18,1.21,1.59,1.19.7,2.09.89v2.06h-17.19v-2.06c1.08-.12,1.88-.43,2.4-.9.52-.48.78-1.15.78-2.02,0-.64-.07-1.36-.22-2.15-.15-.79-.38-1.79-.72-2.99l-.84-3.05Zm-12.12-3.64h11.21l-4.98-17.54-6.23,17.54Z"/><path class="cls-3" d="m257.75,59.89v8.85h-4.27c-.48-1.74-1.02-3.09-1.64-4.03-.61-.94-1.4-1.65-2.37-2.12-.97-.47-2.21-.7-3.72-.7-2.06,0-3.87.63-5.45,1.88-1.58,1.26-2.82,3.26-3.74,6.01-.91,2.75-1.37,6.24-1.37,10.45,0,3.63.31,6.79.92,9.45.61,2.67,1.55,4.74,2.8,6.21,1.26,1.47,2.81,2.21,4.66,2.21s3.18-.54,4.05-1.64,1.31-2.83,1.31-5.22v-1.18c0-1.58-.05-2.7-.16-3.38-.1-.67-.26-1.18-.48-1.51-.22-.33-.5-.6-.86-.81-.35-.21-.98-.45-1.87-.72v-2.06h15.95v2.06c-1.04.31-1.74.66-2.12,1.06-.37.39-.63.92-.76,1.57-.14.65-.2,1.57-.2,2.76v11.74l-4.49.93-2.12-2.24c-2.47,1.52-5.31,2.27-8.5,2.27-6.06,0-10.59-1.77-13.57-5.31-2.98-3.54-4.47-8.9-4.47-16.09,0-3.78.53-7.1,1.59-9.97s2.53-5.2,4.41-6.99c1.88-1.8,4-3.1,6.35-3.92,2.36-.82,4.88-1.23,7.58-1.23,4.55,0,8.72.55,12.52,1.65Z"/><path class="cls-2" d="m321.07,74.11c-2.09,0-3.79.55-5.09,1.64-.8.65-1.74,1.6-2.82,3.38v-4.38h-6.66v26.7h7.03v-12.22c0-2.14.27-3.72.81-4.75.96-1.83,2.85-2.74,5.66-2.74.21,0,.49,0,.83.02.34.02.73.05,1.18.1v-7.7c-.31-.02-.51-.03-.6-.04-.09,0-.2-.01-.33-.01Z"/><path class="cls-2" d="m294.52,99.6c-.23-.33-.37-.95-.42-1.86-.03-1.21-.05-2.24-.05-3.09v-12.25c0-3.22-1.14-5.4-3.4-6.56-2.27-1.16-4.87-1.74-7.79-1.74-4.49,0-7.66,1.18-9.5,3.53-1.16,1.5-1.81,3.42-1.96,5.76h6.74c.16-1.03.49-1.84.98-2.45.69-.82,1.85-1.22,3.5-1.22,1.47,0,2.58.21,3.34.62s1.14,1.17,1.14,2.27c0,.9-.5,1.56-1.49,1.98-.56.24-1.48.45-2.77.61l-2.38.29c-2.69.34-4.74.91-6.12,1.71-2.53,1.47-3.8,3.85-3.8,7.13,0,2.53.79,4.49,2.36,5.87,1.58,1.38,3.57,2.07,5.99,2.07,1.89,0,3.59-.43,5.09-1.3,1.26-.73,2.37-1.62,3.33-2.67.05.6.11,1.14.2,1.62.08.47.23.98.44,1.52h7.59v-1.03c-.46-.21-.8-.48-1.03-.81Zm-7.45-8.55c-.05,2.34-.71,3.94-1.97,4.83-1.27.88-2.65,1.32-4.15,1.32-.95,0-1.75-.27-2.4-.81-.67-.52-1-1.38-1-2.57,0-1.34.54-2.33,1.62-2.96.64-.38,1.69-.69,3.16-.96l1.57-.29c.78-.15,1.4-.31,1.85-.48.45-.17.89-.4,1.33-.67v2.6Z"/><path class="cls-2" d="m349.26,71.9v-6.46h-5.63v-9.67h-8.97v9.67h-64.12v6.46h64.12v22.98c0,2.16.51,3.77,1.53,4.8,4.4,4.4,13.08,2.07,13.08,2.07v-8.02c-.3.02-.6.04-.91.05-.31.01-.6.02-.87.02-1.85,0-3.85-.69-3.85-3.85v-18.05h5.63Z"/><path class="cls-3" d="m363.69,54.4h-1.61v-1.03h4.6v1.03h-1.63v4.39h-1.36v-4.39Z"/><path class="cls-3" d="m372.42,56.72c-.03-.65-.05-1.44-.05-2.23h-.03c-.19.69-.43,1.46-.67,2.1l-.73,2.11h-1.06l-.64-2.1c-.2-.64-.4-1.41-.54-2.11h-.02c-.04.73-.06,1.57-.11,2.24l-.11,2.06h-1.25l.38-5.42h1.8l.59,1.81c.19.63.37,1.3.51,1.94h.03c.17-.63.37-1.34.57-1.95l.64-1.8h1.77l.33,5.42h-1.32l-.09-2.07Z"/><path class="cls-2" d="m109.24,97.6c-.41-1.98-2.93-6.26-5-9.59s-4.1-7.34-4.68-9.23c-.59-1.89-.95-5.18-.81-5.67.14-.5,1.08-1.35,1.44-2.21.36-.86.18-1.8-.41-2.48-.59-.68-2.39-1.58-4.14-1.67-1.76-.09-4.37.14-6.71.99-2.34.86-4.46,2.43-5.54,3.47s-1.17,2.12-.86,3.06c.32.95,2.25,1.53,2.66,1.71.41.18.68.45,1.17,1.36.5.91,2.12,3.86,3.29,5.49s5.97,8.48,7.07,9.95c1.49,1.98,1.34,3.42.31,2.52s-.8-.71-1.46-1.32c-.66-.6-9.66-11.04-10.38-11.95-.72-.9-20.47-25.09-21.85-26.77-1.38-1.68-4.5-5.16-6.48-6.06s-3.9-.78-5.46-.42c-1.56.36-4.2,1.68-5.04,2.16-.84.48-2.82,1.26-4.02,1.38-1.2.12-1.98.66-2.64,1.14-.66.48-1.26,1.5-1.44,1.98-.12.31-.81,1.08-1.29,1.58-.17.18-.03.49.22.47.24-.02.54-.06.88-.14.95-.23,3.38-1.17,4.23-1.62.86-.45,2.07-1.71,2.61-2.25s1.13-.59,2.79-1.26c1.67-.68,2.16-.59,4.5-.36,2.34.23,3.38,1.17,4.32,2.3s7.74,10.26,7.74,10.26l18.68,24.58s10.13,13.69,12.02,15.67c1.89,1.98,4.37,2.52,6.66,2.39,2.3-.14,4.5-.9,6.03-2.7,1.53-1.8,1.98-4.77,1.58-6.75Zm-13.58-23.77c-1.62.72-3.34.94-5.09,1.03-1.74.09-3.96,0-4.86-.15s-1.47-.54-1.47-.54c0,0,6.33-.03,8.64-.63s4-1.76,4.5-2.52c.57-.87.66-2.76-1.98-3.09-.93-.12-1.98,0-1.98,0,0,0,1.11-.78,2.94-.42s2.19.99,2.52,1.59c.33.6.21,1.32-.12,2.07-.33.75-1.49,1.94-3.11,2.66Z"/><ellipse class="cls-2" cx="73.7" cy="65.19" rx=".83" ry="1.1" transform="translate(-24.69 64.43) rotate(-41.05)"/><rect class="cls-2" x="71.97" y="65.71" width="1.68" height=".59" transform="translate(-25.44 64.05) rotate(-41.05)"/><ellipse class="cls-2" cx="75.68" cy="67.73" rx=".83" ry="1.1" transform="translate(-25.87 66.35) rotate(-41.05)"/><rect class="cls-2" x="73.95" y="68.25" width="1.68" height=".59" transform="translate(-26.63 65.97) rotate(-41.05)"/><ellipse class="cls-2" cx="77.63" cy="70.1" rx=".83" ry="1.1" transform="translate(-26.95 68.22) rotate(-41.05)"/><rect class="cls-2" x="75.9" y="70.62" width="1.68" height=".59" transform="translate(-27.7 67.84) rotate(-41.05)"/></svg>